<?xml version="1.0" encoding="UTF-8"?>
<svg id="Layer_3" data-name="Layer 3" xmlns="http://www.w3.org/2000/svg" viewBox="0 0 78.67 153.33">
  <defs>
    <style>
      .cls-1 {
        fill: #1d1e24;
        stroke-width: 0px;
      }
    </style>
  </defs>
  <path class="cls-1" d="M14.76,121.02c-.14,0-.27,0-.4-.02-.98-.09-1.88-.38-2.71-.87-.87-.58-1.58-1.31-2.14-2.19-.21-.37-.32-.75-.32-1.16,0-.23.03-.45.08-.68.18-.62.55-1.1,1.11-1.43.38-.21.77-.32,1.19-.32.23,0,.44.03.64.08.62.18,1.1.55,1.43,1.1.19.27.39.46.58.56l.11.06.42.08c.15-.01.3-.04.45-.1l.26-.14.26-.27c.12-.16.21-.32.29-.48.11-.31.19-.63.26-.95l.02-.45-.02-.45c-.04-.21-.1-.42-.16-.61-.08-.16-.17-.32-.29-.48-.15-.17-.31-.33-.48-.48-.49-.34-1-.67-1.53-.97-.82-.45-1.59-.98-2.32-1.58-.68-.61-1.17-1.33-1.49-2.17-.32-.83-.49-1.7-.52-2.6v-.24c0-.23.01-.45.03-.68l.03-.21c.13-1.42.67-2.68,1.63-3.79.18-.19.38-.38.58-.55l.15-.11c1.02-.83,2.2-1.29,3.54-1.39l.44-.03.42.03c.49.03.97.12,1.42.26.96.33,1.79.84,2.51,1.53.45.48.69,1.08.71,1.79,0,.3-.07.59-.2.86-.13.27-.3.52-.51.74-.2.22-.46.39-.77.52-.31.12-.62.18-.92.18-.62,0-1.19-.23-1.69-.69-.14-.13-.3-.24-.48-.32l-.32-.1h-.35c-.14.03-.27.07-.4.12-.13.05-.25.12-.37.2-.02.02-.06.05-.1.1-.05.04-.1.1-.15.16l-.21.37c-.06.19-.12.39-.16.58l-.02.44.02.43c.04.21.1.42.16.61.04.1.1.18.16.26l.31.32c.39.26.79.5,1.21.74l.63.39c.87.48,1.66,1.07,2.37,1.76.72.76,1.25,1.63,1.6,2.61.12.34.2.69.24,1.05.1.47.15.94.15,1.4-.01,1.01-.19,1.99-.55,2.93-.33.9-.83,1.71-1.48,2.42-.71.71-1.54,1.23-2.48,1.56-.66.18-1.26.27-1.82.27ZM37.97,121.02h-.05c-.58,0-1.13-.24-1.64-.71-.44-.47-.68-1.04-.71-1.69-.01-2.64-.03-5.29-.06-7.93-.64,1.34-1.3,2.69-1.97,4.04-.19.38-.49.67-.88.88-.39.21-.79.31-1.2.31s-.79-.1-1.18-.31c-.39-.21-.68-.5-.88-.88-.01,0-.02,0-.02-.02-.27-.5-.76-1.48-1.48-2.92l-.45-.9.02,3.79-.02,3.77c0,.64-.23,1.21-.69,1.69-.47.46-1.04.7-1.71.71h-.08c-.58,0-1.12-.24-1.61-.71-.47-.52-.71-1.08-.71-1.69l.02-3.92c0-4.61-.03-9.21-.08-13.81,0-.29.06-.59.19-.9.28-.7.81-1.17,1.58-1.42.18-.05.37-.08.56-.08.34,0,.68.07,1,.21.29.1.54.26.76.5l.39.48v.02c.2.37.39.73.56,1.1.11.23,1.38,2.73,3.8,7.51l4.32-8.88c.16-.28.37-.5.63-.66.34-.34.83-.52,1.45-.52.79,0,1.42.31,1.89.93.34.43.52.92.52,1.47l.15,18.13c0,.64-.23,1.2-.7,1.67s-1.03.71-1.7.73ZM49.01,120.69c-.91,0-1.79-.27-2.63-.81-.93-.62-1.69-1.42-2.26-2.38-.81-1.43-1.26-3.07-1.37-4.93-.03-.86-.05-5.02-.05-12.49,0-.67.24-1.24.71-1.71.47-.45,1.04-.68,1.69-.69h.08c.29,0,.58.07.88.2.29.13.54.3.75.49.46.53.69,1.1.69,1.71,0,5.48,0,9.09.02,10.84,0,.69.02,1.38.06,2.06.09.54.22,1.06.4,1.56.26.55.54.95.84,1.21l.26.13h.03l.26-.13.34-.35c.18-.27.34-.55.48-.85.19-.5.33-1.03.42-1.56.03-.45.05-.9.05-1.35l.03-11.63c0-.64.24-1.2.71-1.68s1.04-.71,1.69-.73h.08c.29,0,.58.07.88.2.29.13.54.3.75.51.46.52.69,1.08.69,1.69l-.03,11.91c0,1.87-.39,3.58-1.16,5.14-.16.34-.36.67-.6.98-.89,1.29-2.02,2.12-3.38,2.5-.38.09-.82.14-1.32.16ZM60.45,120.86h-.08c-.58,0-1.12-.24-1.61-.71-.44-.47-.68-1.04-.71-1.69l-.03-3.98-.02-5.06c0-3.07.02-6.14.05-9.22.02-.67.26-1.23.73-1.7.46-.47,1.02-.7,1.68-.7h4.06c1.14,0,2.17.41,3.09,1.24.16.15.32.32.47.5.32.41.57.76.73,1.05.17.29.31.6.44.92l.11.24c.21.52.36,1.04.44,1.58.13.64.19,1.29.19,1.95l-.02.42c-.04,1.51-.42,2.94-1.14,4.27-.31.56-.71,1.06-1.19,1.5-.59.56-1.26.94-2.01,1.14-.52.1-1.04.14-1.56.14h-1.26l.05,5.75c0,.59-.23,1.14-.69,1.64-.47.45-1.04.69-1.71.71ZM64.37,107.96l.15-.16c.13-.18.24-.37.32-.56.14-.39.25-.78.32-1.19.02-.26.03-.52.03-.77s-.01-.52-.03-.77c-.08-.42-.18-.82-.32-1.19-.15-.32-.28-.54-.39-.64l-.08-.08c-.16.01-.68.02-1.55.02l-.02,5.35,1.56.02ZM17.57,146.74h-.08c-.58,0-1.12-.23-1.61-.69-.47-.52-.71-1.08-.71-1.71-.02-2.42-.03-4.83-.03-7.25-.29-.69-.56-1.37-.82-2.05-1.1-2.8-2.12-5.63-3.06-8.48-.06-.2-.1-.41-.1-.61,0-.43.11-.84.34-1.22.33-.56.81-.93,1.43-1.11.18-.05.38-.08.58-.08.44,0,.86.11,1.26.32.55.34.92.82,1.11,1.43l.82,2.45.81,2.26.37-.97c.44-1.21.89-2.42,1.34-3.63.12-.41.32-.76.61-1.05l.48-.39c.38-.2.77-.31,1.19-.31.23,0,.45.02.66.06.29.08.56.21.82.42s.46.44.61.69c.21.33.32.76.32,1.27,0,.19-.03.39-.08.58l-.48,1.32c-1.15,3.07-2.29,6.14-3.42,9.22,0,2.36.01,4.73.03,7.11,0,.66-.23,1.22-.7,1.68-.47.47-1.03.71-1.7.72ZM30.47,146.45c-.4,0-.79-.04-1.19-.13-.18-.04-.35-.1-.52-.16-1.42-.52-2.56-1.45-3.43-2.8-.24-.35-.44-.73-.61-1.13-.78-1.65-1.18-3.49-1.18-5.49l.02-.32c0-1.03.01-2.06.03-3.09.02-2.36.56-4.43,1.63-6.19.38-.61.83-1.17,1.35-1.68,1.18-1.11,2.47-1.66,3.87-1.66h.18c2.17.06,3.96,1.26,5.37,3.59.98,1.77,1.47,3.79,1.47,6.06l-.02,3.25c-.01.87-.09,1.73-.24,2.58-.19,1.15-.55,2.24-1.08,3.27-.18.39-.4.75-.66,1.08-.32.46-.7.89-1.13,1.29l-.05.03c-.69.6-1.47,1.04-2.34,1.3-.47.13-.96.19-1.47.19ZM30.56,141.67l.16-.05.29-.18.11-.11c.33-.31.64-.78.93-1.4.23-.6.39-1.22.5-1.85.04-.58.06-1.01.06-1.29l.02-2.98c0-.54-.02-1.07-.06-1.61-.17-1.13-.54-2.11-1.1-2.93-.14-.16-.29-.31-.45-.45l-.27-.16-.18-.05c-.11,0-.21.02-.31.05-.19.09-.44.29-.73.61-.77,1.13-1.16,2.49-1.16,4.09l-.05,3.38c0,.43.02.87.06,1.32.11.64.27,1.27.5,1.87.31.67.66,1.17,1.05,1.51l.29.18.18.05h.15ZM46.52,146.77c-1.02,0-2-.27-2.95-.81-1.03-.62-1.9-1.43-2.59-2.42-.9-1.24-1.5-2.6-1.8-4.11-.27-1.32-.4-2.65-.4-4,0-.32,0-.64.02-.95.13-1.97.44-3.58.92-4.85.82-2.28,2.06-3.92,3.74-4.93.89-.53,1.82-.79,2.79-.79.75,0,1.55.14,2.4.42.63.25,1.26.51,1.87.79.28.14.51.34.69.61.33.48.5.96.5,1.42s-.11.86-.34,1.26c-.14.26-.34.49-.61.69-.44.33-.89.5-1.35.5-.14,0-.28-.02-.42-.05-.31-.02-.61-.11-.9-.27-.14-.08-.29-.15-.45-.21-.57-.24-1.04-.35-1.42-.35-.18.05-.36.14-.53.26-.52.45-.96,1.07-1.32,1.87-.31.85-.53,1.72-.66,2.61-.09.69-.13,1.38-.13,2.06s.04,1.31.11,1.97c.12.76.31,1.5.56,2.22.35.74.82,1.37,1.4,1.89.15.1.3.18.44.26.18.06.37.1.55.11.15-.01.29-.04.42-.08l.06-.02v-3.58c-.57-.06-1.07-.29-1.5-.69-.46-.48-.7-1.06-.71-1.74,0-.29.07-.59.2-.89.13-.3.3-.56.51-.77.49-.46,1.04-.69,1.64-.69l2.26.02c.66,0,1.22.24,1.69.71s.71,1.04.71,1.69v7.19c-.04.82-.38,1.48-1.02,1.98l-.13.11c-1.18.98-2.5,1.49-3.95,1.55l-.29.02ZM54.81,146.94c-.59,0-1.09-.16-1.5-.48-.62-.49-.93-1.14-.93-1.95,0-.2.03-.4.08-.6,2.05-6.92,3.82-13.07,5.32-18.47.08-.28.21-.55.4-.82.46-.6,1.11-.91,1.95-.93.52,0,.98.17,1.4.5s.71.75.87,1.26l5.53,18.34c.06.2.1.41.1.61,0,.43-.11.84-.34,1.24-.33.56-.81.93-1.43,1.11-.18.05-.38.08-.58.08-.44,0-.86-.11-1.26-.32-.55-.35-.92-.83-1.11-1.43v-.03c-.16-.49-.31-.99-.45-1.48l-.37-1.21h-4.54l-.85,2.84c-.19.61-.56,1.09-1.1,1.43-.38.21-.77.32-1.18.32ZM61.03,137.54l-.85-2.87-.84,2.87h1.69ZM57.94,91.46H20.78c-4.91,0-8.36-1.22-10.55-3.74-1.96-2.26-2.68-5.37-2.13-9.25h0c.65-4.57,3.54-8.25,7.57-9.6,3.87-1.3,7.99-.28,11.03,2.74l12.71,12.61,12.64-12.61c3.02-3.01,7.12-4.04,10.97-2.75,4.02,1.35,6.91,5.03,7.56,9.61.55,3.88-.17,7-2.14,9.26-2.18,2.51-5.61,3.73-10.49,3.73ZM46.66,85.46h11.27c2.96,0,5.02-.58,5.96-1.66.77-.89,1.02-2.4.73-4.49-.33-2.35-1.65-4.12-3.52-4.75-1.67-.56-3.43-.08-4.83,1.31h0l-9.62,9.59ZM14.04,79.32c-.29,2.08-.05,3.58.72,4.47.95,1.1,3.03,1.68,6.02,1.68h11.34l-9.66-9.59c-1.41-1.4-3.19-1.88-4.89-1.31-1.88.63-3.21,2.41-3.54,4.75h0ZM54.16,73.75h0,0ZM39.53,76.07c-.6,0-1.21-.18-1.74-.56-9.15-6.54-15.55-17.91-15.55-27.64,0-11.59,6.76-19.08,17.22-19.08,8.78,0,14.63,4.54,16.93,13.14.99,3.71.24,7.91-1.97,10.94-2.09,2.88-5.32,4.58-9.1,4.79-2.86.15-5.92-1.03-8.18-3.17-2.06-1.95-3.19-4.41-3.19-6.93,0-2.93,1.27-5.71,3.49-7.63,1.25-1.08,3.15-.95,4.23.31,1.08,1.25.95,3.15-.31,4.23-.9.78-1.41,1.9-1.41,3.09,0,.85.48,1.79,1.31,2.58,1.05,1,2.53,1.59,3.73,1.53,1.99-.11,3.53-.89,4.57-2.32,1.15-1.59,1.55-3.89,1.03-5.87-1.61-6.01-5.04-8.69-11.14-8.69-7.03,0-11.22,4.89-11.22,13.08s5.48,17.36,13.04,22.76c1.35.96,1.66,2.84.7,4.19-.59.82-1.51,1.25-2.44,1.25ZM39.59,26.84c-5.64,0-10.22-4.59-10.22-10.22s4.59-10.22,10.22-10.22,10.22,4.59,10.22,10.22-4.59,10.22-10.22,10.22ZM39.59,12.4c-2.33,0-4.22,1.89-4.22,4.22s1.89,4.22,4.22,4.22,4.22-1.89,4.22-4.22-1.89-4.22-4.22-4.22Z"/>
</svg>